<svg width="179" height="70" viewBox="0 0 179 70" fill="none" xmlns="http://www.w3.org/2000/svg">
<path d="M5.42 20.2C4.31333 20.2 3.37333 20 2.6 19.6C1.82667 19.2 1.13333 18.6133 0.52 17.84L2.08 16.28C2.46667 16.84 2.92667 17.28 3.46 17.6C3.99333 17.9067 4.67333 18.06 5.5 18.06C6.27333 18.06 6.88667 17.9 7.34 17.58C7.80667 17.26 8.04 16.82 8.04 16.26C8.04 15.7933 7.92 15.4133 7.68 15.12C7.44 14.8267 7.12 14.5867 6.72 14.4C6.33333 14.2 5.9 14.0267 5.42 13.88C4.95333 13.72 4.48 13.5467 4 13.36C3.53333 13.16 3.1 12.9133 2.7 12.62C2.31333 12.3267 2 11.9467 1.76 11.48C1.52 11.0133 1.4 10.42 1.4 9.7C1.4 8.87333 1.6 8.17333 2 7.6C2.41333 7.01333 2.96667 6.56667 3.66 6.26C4.35333 5.95333 5.12667 5.8 5.98 5.8C6.9 5.8 7.72 5.98 8.44 6.34C9.17333 6.7 9.76667 7.16 10.22 7.72L8.66 9.28C8.26 8.82667 7.84 8.49333 7.4 8.28C6.97333 8.05333 6.48 7.94 5.92 7.94C5.22667 7.94 4.68 8.08 4.28 8.36C3.89333 8.64 3.7 9.03333 3.7 9.54C3.7 9.96667 3.82 10.3133 4.06 10.58C4.3 10.8333 4.61333 11.0533 5 11.24C5.4 11.4133 5.83333 11.58 6.3 11.74C6.78 11.9 7.25333 12.08 7.72 12.28C8.2 12.48 8.63333 12.74 9.02 13.06C9.42 13.3667 9.74 13.7667 9.98 14.26C10.22 14.7533 10.34 15.3733 10.34 16.12C10.34 17.3733 9.89333 18.3667 9 19.1C8.12 19.8333 6.92667 20.2 5.42 20.2ZM13.7933 20V6.4H15.9933V20H13.7933ZM11.4933 12.4V10.4H18.2933V12.4H11.4933ZM23.8319 20.2C23.0185 20.2 22.2919 20.02 21.6519 19.66C21.0252 19.3 20.5319 18.8067 20.1719 18.18C19.8252 17.54 19.6519 16.8067 19.6519 15.98V10.4H21.8519V15.88C21.8519 16.3467 21.9252 16.7467 22.0719 17.08C22.2319 17.4 22.4585 17.6467 22.7519 17.82C23.0585 17.9933 23.4185 18.08 23.8319 18.08C24.4719 18.08 24.9585 17.8933 25.2919 17.52C25.6385 17.1333 25.8119 16.5867 25.8119 15.88V10.4H28.0119V15.98C28.0119 16.82 27.8319 17.56 27.4719 18.2C27.1252 18.8267 26.6385 19.32 26.0119 19.68C25.3852 20.0267 24.6585 20.2 23.8319 20.2ZM34.2439 20.2C33.3772 20.2 32.5906 19.98 31.8839 19.54C31.1906 19.1 30.6372 18.5067 30.2239 17.76C29.8239 17 29.6239 16.1533 29.6239 15.22C29.6239 14.2733 29.8239 13.4267 30.2239 12.68C30.6372 11.92 31.1906 11.32 31.8839 10.88C32.5906 10.4267 33.3772 10.2 34.2439 10.2C34.9772 10.2 35.6239 10.36 36.1839 10.68C36.7572 10.9867 37.2106 11.4133 37.5439 11.96C37.8772 12.5067 38.0439 13.1267 38.0439 13.82V16.58C38.0439 17.2733 37.8772 17.8933 37.5439 18.44C37.2239 18.9867 36.7772 19.42 36.2039 19.74C35.6306 20.0467 34.9772 20.2 34.2439 20.2ZM34.6039 18.12C35.1506 18.12 35.6239 18 36.0239 17.76C36.4372 17.5067 36.7572 17.16 36.9839 16.72C37.2106 16.28 37.3239 15.7733 37.3239 15.2C37.3239 14.6267 37.2106 14.12 36.9839 13.68C36.7572 13.24 36.4372 12.9 36.0239 12.66C35.6239 12.4067 35.1506 12.28 34.6039 12.28C34.0706 12.28 33.5972 12.4067 33.1839 12.66C32.7839 12.9 32.4639 13.24 32.2239 13.68C31.9972 14.12 31.8839 14.6267 31.8839 15.2C31.8839 15.7733 31.9972 16.28 32.2239 16.72C32.4639 17.16 32.7839 17.5067 33.1839 17.76C33.5972 18 34.0706 18.12 34.6039 18.12ZM39.3839 20H37.1839V17.42L37.5639 15.08L37.1839 12.76V5.6H39.3839V20ZM41.8455 20V10.4H44.0455V20H41.8455ZM42.9455 8.64C42.5721 8.64 42.2588 8.51333 42.0055 8.26C41.7655 8.00667 41.6455 7.69333 41.6455 7.32C41.6455 6.94667 41.7655 6.63333 42.0055 6.38C42.2588 6.12667 42.5721 6 42.9455 6C43.3321 6 43.6455 6.12667 43.8855 6.38C44.1255 6.63333 44.2455 6.94667 44.2455 7.32C44.2455 7.69333 44.1255 8.00667 43.8855 8.26C43.6455 8.51333 43.3321 8.64 42.9455 8.64ZM50.913 20.2C49.9796 20.2 49.133 19.98 48.373 19.54C47.613 19.0867 47.0063 18.48 46.553 17.72C46.113 16.96 45.893 16.1133 45.893 15.18C45.893 14.2467 46.113 13.4067 46.553 12.66C47.0063 11.9133 47.613 11.32 48.373 10.88C49.133 10.4267 49.9796 10.2 50.913 10.2C51.8596 10.2 52.713 10.42 53.473 10.86C54.233 11.3 54.833 11.9 55.273 12.66C55.7263 13.4067 55.953 14.2467 55.953 15.18C55.953 16.1133 55.7263 16.96 55.273 17.72C54.833 18.48 54.233 19.0867 53.473 19.54C52.713 19.98 51.8596 20.2 50.913 20.2ZM50.913 18.08C51.4596 18.08 51.9396 17.96 52.353 17.72C52.7796 17.4667 53.1063 17.12 53.333 16.68C53.573 16.24 53.693 15.74 53.693 15.18C53.693 14.62 53.573 14.1267 53.333 13.7C53.093 13.2733 52.7663 12.94 52.353 12.7C51.9396 12.4467 51.4596 12.32 50.913 12.32C50.3796 12.32 49.8996 12.4467 49.473 12.7C49.0596 12.94 48.733 13.2733 48.493 13.7C48.2663 14.1267 48.153 14.62 48.153 15.18C48.153 15.74 48.2663 16.24 48.493 16.68C48.733 17.12 49.0596 17.4667 49.473 17.72C49.8996 17.96 50.3796 18.08 50.913 18.08ZM59.1305 20.2C58.7038 20.2 58.3505 20.06 58.0705 19.78C57.8038 19.4867 57.6705 19.1333 57.6705 18.72C57.6705 18.2933 57.8038 17.94 58.0705 17.66C58.3505 17.38 58.7038 17.24 59.1305 17.24C59.5571 17.24 59.9038 17.38 60.1705 17.66C60.4505 17.94 60.5905 18.2933 60.5905 18.72C60.5905 19.1333 60.4505 19.4867 60.1705 19.78C59.9038 20.06 59.5571 20.2 59.1305 20.2Z" fill="black"/>
<path d="M6.2 48.12V44.32H13.28C14.6933 44.32 15.7867 43.96 16.56 43.24C17.36 42.4933 17.76 41.4667 17.76 40.16C17.76 38.9867 17.3733 38 16.6 37.2C15.8267 36.4 14.7333 36 13.32 36H6.2V32H13.52C15.28 32 16.8267 32.36 18.16 33.08C19.4933 33.7733 20.52 34.7333 21.24 35.96C21.9867 37.16 22.36 38.5333 22.36 40.08C22.36 41.7067 21.9867 43.12 21.24 44.32C20.52 45.52 19.4933 46.4533 18.16 47.12C16.8267 47.7867 15.28 48.12 13.52 48.12H6.2ZM3.04 60V32H7.64V60H3.04ZM18.4 60L8.6 47.84L12.88 46.28L24.2 60H18.4ZM27.6103 60V32H32.2103V60H27.6103ZM30.7703 60V55.8H46.4503V60H30.7703ZM30.7703 47.72V43.68H45.0903V47.72H30.7703ZM30.7703 36.2V32H46.2503V36.2H30.7703ZM49.1241 60L60.6441 32H63.8441L75.2841 60H70.3241L61.3641 37.32H63.0441L54.0041 60H49.1241ZM54.8041 54.6V50.6H69.6441V54.6H54.8041ZM78.9775 60V32H83.5775V60H78.9775ZM82.1375 60V55.8H96.7775V60H82.1375ZM104.13 60V55.8H111.49C113.41 55.8 115.09 55.3867 116.53 54.56C117.996 53.7333 119.13 52.5867 119.93 51.12C120.756 49.6267 121.17 47.9067 121.17 45.96C121.17 44.04 120.756 42.3467 119.93 40.88C119.103 39.4133 117.956 38.2667 116.49 37.44C115.05 36.6133 113.383 36.2 111.49 36.2H104.13V32H111.61C113.636 32 115.516 32.36 117.25 33.08C118.983 33.7733 120.49 34.76 121.77 36.04C123.076 37.2933 124.09 38.7733 124.81 40.48C125.53 42.16 125.89 44 125.89 46C125.89 47.9733 125.53 49.8133 124.81 51.52C124.09 53.2267 123.09 54.72 121.81 56C120.53 57.2533 119.023 58.24 117.29 58.96C115.556 59.6533 113.69 60 111.69 60H104.13ZM100.97 60V32H105.57V60H100.97ZM128.499 60L140.019 32H143.219L154.659 60H149.699L140.739 37.32H142.419L133.379 60H128.499ZM134.179 54.6V50.6H149.019V54.6H134.179ZM163.323 48.8L152.403 32H157.723L166.243 45.4H163.763L172.283 32H177.523L166.523 48.8H163.323ZM162.683 60V45.92H167.283V60H162.683Z" fill="black"/>
</svg>




